<svg xmlns="http://www.w3.org/2000/svg" viewBox="0 0 184 218" width="184" height="218" font-family="ui-monospace, SFMono-Regular, Menlo, Consolas, monospace" font-size="13">
<defs>
  <marker id="td-arrow" viewBox="0 0 10 10" refX="9" refY="5" markerWidth="8" markerHeight="8" orient="auto-start-reverse">
    <path d="M0,0 L10,5 L0,10 z" fill="#5b6068"/>
  </marker>
</defs>
<rect x="0" y="0" width="184" height="218" fill="none"/>
<g data-decl="AllPrimitives" data-kind="record">
  <rect x="29" y="28" width="126" height="162" rx="6" ry="6" fill="#ffffff" stroke="#3b3f46" stroke-width="1"/>
  <rect x="29" y="28" width="126" height="34.2" rx="6" ry="6" fill="#eef1f5" stroke="none"/>
  <rect x="29" y="56.2" width="126" height="6" fill="#eef1f5" stroke="none"/>
  <line x1="29" y1="62.2" x2="155" y2="62.2" stroke="#3b3f46" stroke-width="1"/>
  <rect x="29" y="28" width="4" height="162" rx="2" ry="2" fill="#1f6feb"/>
  <text x="39" y="49.65" fill="#1a1d22" font-weight="600">AllPrimitives</text>
  
  <line x1="29" y1="62.2" x2="155" y2="62.2" stroke="#dadde2" stroke-width="1"/>
<text x="39" y="77.35" fill="#1a1d22">b: Bool</text>
<line x1="29" y1="83.4" x2="155" y2="83.4" stroke="#dadde2" stroke-width="1"/>
<text x="39" y="98.55" fill="#1a1d22">i: Int</text>
<line x1="29" y1="104.60000000000001" x2="155" y2="104.60000000000001" stroke="#dadde2" stroke-width="1"/>
<text x="39" y="119.75" fill="#1a1d22">f: Float</text>
<line x1="29" y1="125.80000000000001" x2="155" y2="125.80000000000001" stroke="#dadde2" stroke-width="1"/>
<text x="39" y="140.95000000000002" fill="#1a1d22">s: String</text>
<line x1="29" y1="147" x2="155" y2="147" stroke="#dadde2" stroke-width="1"/>
<text x="39" y="162.15" fill="#1a1d22">by: Bytes</text>
<line x1="29" y1="168.20000000000002" x2="155" y2="168.20000000000002" stroke="#dadde2" stroke-width="1"/>
<text x="39" y="183.35000000000002" fill="#1a1d22">u: Unit</text>
</g>

</svg>