<svg xmlns="http://www.w3.org/2000/svg" viewBox="0 0 301 197" width="301" height="197" font-family="ui-monospace, SFMono-Regular, Menlo, Consolas, monospace" font-size="13">
<defs>
  <marker id="td-arrow" viewBox="0 0 10 10" refX="9" refY="5" markerWidth="8" markerHeight="8" orient="auto-start-reverse">
    <path d="M0,0 L10,5 L0,10 z" fill="#5b6068"/>
  </marker>
</defs>
<rect x="0" y="0" width="301" height="197" fill="none"/>
<g data-decl="HttpRequest" data-kind="record">
  <rect x="29" y="28" width="243" height="141" rx="6" ry="6" fill="#ffffff" stroke="#3b3f46" stroke-width="1"/>
  <rect x="29" y="28" width="243" height="34.2" rx="6" ry="6" fill="#eef1f5" stroke="none"/>
  <rect x="29" y="56.2" width="243" height="6" fill="#eef1f5" stroke="none"/>
  <line x1="29" y1="62.2" x2="272" y2="62.2" stroke="#3b3f46" stroke-width="1"/>
  <rect x="29" y="28" width="4" height="141" rx="2" ry="2" fill="#1f6feb"/>
  <text x="39" y="49.65" fill="#1a1d22" font-weight="600">HttpRequest</text>
  
  <line x1="29" y1="62.2" x2="272" y2="62.2" stroke="#dadde2" stroke-width="1"/>
<text x="39" y="77.35" fill="#1a1d22">url: URL</text>
<line x1="29" y1="83.4" x2="272" y2="83.4" stroke="#dadde2" stroke-width="1"/>
<text x="39" y="98.55" fill="#1a1d22">method: HttpMethod</text>
<line x1="29" y1="104.60000000000001" x2="272" y2="104.60000000000001" stroke="#dadde2" stroke-width="1"/>
<text x="39" y="119.75" fill="#1a1d22">headers: Map&lt;String, String&gt;</text>
<line x1="29" y1="125.80000000000001" x2="272" y2="125.80000000000001" stroke="#dadde2" stroke-width="1"/>
<text x="39" y="140.95000000000002" fill="#1a1d22">body: Option&lt;Bytes&gt;</text>
<line x1="29" y1="147" x2="272" y2="147" stroke="#dadde2" stroke-width="1"/>
<text x="39" y="162.15" fill="#1a1d22">timeout: Duration</text>
</g>

</svg>