<svg xmlns="http://www.w3.org/2000/svg" viewBox="0 0 290 143" width="290" height="143" font-family="ui-monospace, SFMono-Regular, Menlo, Consolas, monospace" font-size="13">
<defs>
  <marker id="td-arrow" viewBox="0 0 10 10" refX="9" refY="5" markerWidth="8" markerHeight="8" orient="auto-start-reverse">
    <path d="M0,0 L10,5 L0,10 z" fill="#5b6068"/>
  </marker>
</defs>
<rect x="0" y="0" width="290" height="143" fill="none"/>
<g data-decl="TreeNode" data-kind="record">
  <rect x="39" y="28" width="212" height="77" rx="6" ry="6" fill="#ffffff" stroke="#3b3f46" stroke-width="1"/>
  <rect x="39" y="28" width="212" height="34.2" rx="6" ry="6" fill="#eef1f5" stroke="none"/>
  <rect x="39" y="56.2" width="212" height="6" fill="#eef1f5" stroke="none"/>
  <line x1="39" y1="62.2" x2="251" y2="62.2" stroke="#3b3f46" stroke-width="1"/>
  <rect x="39" y="28" width="4" height="77" rx="2" ry="2" fill="#1f6feb"/>
  <text x="49" y="49.65" fill="#1a1d22" font-weight="600">TreeNode</text>
  
  <line x1="39" y1="62.2" x2="251" y2="62.2" stroke="#dadde2" stroke-width="1"/>
<text x="49" y="77.35" fill="#1a1d22">value: String</text>
<line x1="39" y1="83.4" x2="251" y2="83.4" stroke="#dadde2" stroke-width="1"/>
<text x="49" y="98.55" fill="#1a1d22">children: List&lt;TreeNode&gt;</text>
</g>
<polyline points="252,80 262,79.5 262,115 28,115 28,66.5 38,67" fill="none" stroke="#5b6068" stroke-width="1" marker-end="url(#td-arrow)" stroke-dasharray="3 3"/>
<text x="145" y="111" fill="#3b3f46" font-size="11" text-anchor="middle">children</text>
</svg>