<svg xmlns="http://www.w3.org/2000/svg" viewBox="0 0 480 517" width="480" height="517" font-family="ui-monospace, SFMono-Regular, Menlo, Consolas, monospace" font-size="13">
<defs>
  <marker id="td-arrow" viewBox="0 0 10 10" refX="9" refY="5" markerWidth="8" markerHeight="8" orient="auto-start-reverse">
    <path d="M0,0 L10,5 L0,10 z" fill="#5b6068"/>
  </marker>
</defs>
<rect x="0" y="0" width="480" height="517" fill="none"/>
<g data-decl="User" data-kind="record">
  <rect x="29" y="229" width="180" height="141" rx="6" ry="6" fill="#ffffff" stroke="#3b3f46" stroke-width="1"/>
  <rect x="29" y="229" width="180" height="34.2" rx="6" ry="6" fill="#eef1f5" stroke="none"/>
  <rect x="29" y="257.2" width="180" height="6" fill="#eef1f5" stroke="none"/>
  <line x1="29" y1="263.2" x2="209" y2="263.2" stroke="#3b3f46" stroke-width="1"/>
  <rect x="29" y="229" width="4" height="141" rx="2" ry="2" fill="#1f6feb"/>
  <text x="39" y="250.65" fill="#1a1d22" font-weight="600">User</text>
  
  <line x1="29" y1="263.2" x2="209" y2="263.2" stroke="#dadde2" stroke-width="1"/>
<text x="39" y="278.35" fill="#1a1d22">id: UUID</text>
<line x1="29" y1="284.4" x2="209" y2="284.4" stroke="#dadde2" stroke-width="1"/>
<text x="39" y="299.55" fill="#1a1d22">name: String</text>
<line x1="29" y1="305.6" x2="209" y2="305.6" stroke="#dadde2" stroke-width="1"/>
<text x="39" y="320.75000000000006" fill="#1a1d22">email: Option&lt;Email&gt;</text>
<line x1="29" y1="326.8" x2="209" y2="326.8" stroke="#dadde2" stroke-width="1"/>
<text x="39" y="341.95000000000005" fill="#1a1d22">roles: List&lt;Role&gt;</text>
<line x1="29" y1="348" x2="209" y2="348" stroke="#dadde2" stroke-width="1"/>
<text x="39" y="363.15000000000003" fill="#1a1d22">address: Address</text>
</g>
<g data-decl="Address" data-kind="record">
  <rect x="271" y="162" width="180" height="98" rx="6" ry="6" fill="#ffffff" stroke="#3b3f46" stroke-width="1"/>
  <rect x="271" y="162" width="180" height="34.2" rx="6" ry="6" fill="#eef1f5" stroke="none"/>
  <rect x="271" y="190.2" width="180" height="6" fill="#eef1f5" stroke="none"/>
  <line x1="271" y1="196.2" x2="451" y2="196.2" stroke="#3b3f46" stroke-width="1"/>
  <rect x="271" y="162" width="4" height="98" rx="2" ry="2" fill="#1f6feb"/>
  <text x="281" y="183.65" fill="#1a1d22" font-weight="600">Address</text>
  
  <line x1="271" y1="196.2" x2="451" y2="196.2" stroke="#dadde2" stroke-width="1"/>
<text x="281" y="211.35" fill="#1a1d22">line1: String</text>
<line x1="271" y1="217.4" x2="451" y2="217.4" stroke="#dadde2" stroke-width="1"/>
<text x="281" y="232.55" fill="#1a1d22">city: String</text>
<line x1="271" y1="238.60000000000002" x2="451" y2="238.60000000000002" stroke="#dadde2" stroke-width="1"/>
<text x="281" y="253.75000000000003" fill="#1a1d22">country: CountryCode</text>
</g>
<g data-decl="Shape" data-kind="union">
  <rect x="29" y="28" width="344" height="114" rx="6" ry="6" fill="#ffffff" stroke="#3b3f46" stroke-width="1"/>
  <rect x="29" y="28" width="344" height="50.2" rx="6" ry="6" fill="#f3eefa" stroke="none"/>
  <rect x="29" y="72.2" width="344" height="6" fill="#f3eefa" stroke="none"/>
  <line x1="29" y1="78.2" x2="373" y2="78.2" stroke="#3b3f46" stroke-width="1"/>
  <rect x="29" y="28" width="4" height="114" rx="2" ry="2" fill="#7a4cc7"/>
  <text x="39" y="49.65" fill="#1a1d22" font-weight="600">union Shape</text>
  <text x="201" y="72.8" fill="#7a4cc7" font-size="9" font-weight="700" text-anchor="middle" font-style="italic" letter-spacing="0.08em">ONE OF</text>
  <line x1="29" y1="78.2" x2="373" y2="78.2" stroke="#dadde2" stroke-width="1"/>
  <line x1="29" y1="78.2" x2="373" y2="78.2" stroke="#dadde2" stroke-width="1" stroke-dasharray="4 3"/>
<text x="39" y="93.35" fill="#1a1d22">◇ Circle { radius: Float }</text>
<line x1="29" y1="99.4" x2="373" y2="99.4" stroke="#dadde2" stroke-width="1" stroke-dasharray="4 3"/>
<text x="39" y="114.55" fill="#1a1d22">◇ Square { side: Float }</text>
<line x1="29" y1="120.60000000000001" x2="373" y2="120.60000000000001" stroke="#dadde2" stroke-width="1" stroke-dasharray="4 3"/>
<text x="39" y="135.75000000000003" fill="#1a1d22">◇ Triangle { a: Float, b: Float, c: Float }</text>
</g>
<g data-decl="Option" data-kind="union">
  <rect x="271" y="300" width="157" height="93" rx="6" ry="6" fill="#ffffff" stroke="#3b3f46" stroke-width="1"/>
  <rect x="271" y="300" width="157" height="50.2" rx="6" ry="6" fill="#f3eefa" stroke="none"/>
  <rect x="271" y="344.2" width="157" height="6" fill="#f3eefa" stroke="none"/>
  <line x1="271" y1="350.2" x2="428" y2="350.2" stroke="#3b3f46" stroke-width="1"/>
  <rect x="271" y="300" width="4" height="93" rx="2" ry="2" fill="#7a4cc7"/>
  <text x="281" y="321.65000000000003" fill="#1a1d22" font-weight="600">union Option&lt;T&gt;</text>
  <text x="349.5" y="344.8" fill="#7a4cc7" font-size="9" font-weight="700" text-anchor="middle" font-style="italic" letter-spacing="0.08em">ONE OF</text>
  <line x1="271" y1="350.2" x2="428" y2="350.2" stroke="#dadde2" stroke-width="1"/>
  <line x1="271" y1="350.2" x2="428" y2="350.2" stroke="#dadde2" stroke-width="1" stroke-dasharray="4 3"/>
<text x="281" y="365.35" fill="#1a1d22">◇ Some { value: T }</text>
<line x1="271" y1="371.4" x2="428" y2="371.4" stroke="#dadde2" stroke-width="1" stroke-dasharray="4 3"/>
<text x="281" y="386.55" fill="#1a1d22">◇ None</text>
</g>
<g data-decl="Email" data-kind="alias">
  <rect x="271" y="433" width="110" height="56" rx="6" ry="6" fill="#ffffff" stroke="#3b3f46" stroke-width="1"/>
  <rect x="271" y="433" width="110" height="34.2" rx="6" ry="6" fill="#eef1f5" stroke="none"/>
  <rect x="271" y="461.2" width="110" height="6" fill="#eef1f5" stroke="none"/>
  <line x1="271" y1="467.2" x2="381" y2="467.2" stroke="#3b3f46" stroke-width="1"/>
  <rect x="271" y="433" width="4" height="56" rx="2" ry="2" fill="#0a7a5e"/>
  <text x="281" y="454.65000000000003" fill="#1a1d22" font-weight="600">alias Email</text>
  
  <line x1="271" y1="467.2" x2="381" y2="467.2" stroke="#dadde2" stroke-width="1"/>
<text x="281" y="482.35" fill="#1a1d22">= String</text>
</g>
<polyline points="210,347 270,347" fill="none" stroke="#5b6068" stroke-width="1.5" marker-end="url(#td-arrow)" />
<text x="240" y="343" fill="#3b3f46" font-size="11" text-anchor="middle">email</text>
<polyline points="210,347 220,347 220,461 270,461" fill="none" stroke="#5b6068" stroke-width="1" marker-end="url(#td-arrow)" stroke-dasharray="3 3"/>
<text x="220" y="400" fill="#3b3f46" font-size="11" text-anchor="middle">email</text>
<polyline points="210,323 220,323 220,211 270,211" fill="none" stroke="#5b6068" stroke-width="1.5" marker-end="url(#td-arrow)" />
<text x="220" y="263" fill="#3b3f46" font-size="11" text-anchor="middle">address</text>
</svg>