<svg xmlns="http://www.w3.org/2000/svg" viewBox="0 0 1825 402" width="1825" height="402" font-family="ui-monospace, SFMono-Regular, Menlo, Consolas, monospace" font-size="13">
<defs>
  <marker id="td-arrow" viewBox="0 0 10 10" refX="9" refY="5" markerWidth="8" markerHeight="8" orient="auto-start-reverse">
    <path d="M0,0 L10,5 L0,10 z" fill="#5b6068"/>
  </marker>
</defs>
<rect x="0" y="0" width="1825" height="402" fill="#ffffff"/>
<g data-decl="ChatRequest" data-kind="record">
  <rect x="29" y="28" width="321" height="98" rx="6" ry="6" fill="#ffffff" stroke="#3b3f46" stroke-width="1"/>
  <rect x="29" y="28" width="321" height="34.2" rx="6" ry="6" fill="#eef1f5" stroke="none"/>
  <rect x="29" y="56.2" width="321" height="6" fill="#eef1f5" stroke="none"/>
  <line x1="29" y1="62.2" x2="350" y2="62.2" stroke="#3b3f46" stroke-width="1"/>
  <rect x="29" y="28" width="4" height="98" rx="2" ry="2" fill="#1f6feb"/>
  <text x="39" y="49.65" fill="#1a1d22" font-weight="600">ChatRequest</text>
  <line x1="29" y1="62.2" x2="350" y2="62.2" stroke="#dadde2" stroke-width="1"/>
<text x="39" y="77.35" fill="#1a1d22">message: String</text>
<line x1="29" y1="83.4" x2="350" y2="83.4" stroke="#dadde2" stroke-width="1"/>
<text x="39" y="98.55" fill="#1a1d22">session_id: String</text>
<line x1="29" y1="104.60000000000001" x2="350" y2="104.60000000000001" stroke="#dadde2" stroke-width="1"/>
<text x="39" y="119.75" fill="#1a1d22">tool_results: Option&lt;List&lt;ToolResult&gt;&gt;</text>
</g>
<g data-decl="ChatTurnInput" data-kind="record">
  <rect x="29" y="166" width="321" height="120" rx="6" ry="6" fill="#ffffff" stroke="#3b3f46" stroke-width="1"/>
  <rect x="29" y="166" width="321" height="34.2" rx="6" ry="6" fill="#eef1f5" stroke="none"/>
  <rect x="29" y="194.2" width="321" height="6" fill="#eef1f5" stroke="none"/>
  <line x1="29" y1="200.2" x2="350" y2="200.2" stroke="#3b3f46" stroke-width="1"/>
  <rect x="29" y="166" width="4" height="120" rx="2" ry="2" fill="#1f6feb"/>
  <text x="39" y="187.65" fill="#1a1d22" font-weight="600">ChatTurnInput</text>
  <line x1="29" y1="200.2" x2="350" y2="200.2" stroke="#dadde2" stroke-width="1"/>
<text x="39" y="215.35" fill="#1a1d22">config: AgentConfig</text>
<line x1="29" y1="221.4" x2="350" y2="221.4" stroke="#dadde2" stroke-width="1"/>
<text x="39" y="236.55" fill="#1a1d22">user_message: String</text>
<line x1="29" y1="242.60000000000002" x2="350" y2="242.60000000000002" stroke="#dadde2" stroke-width="1"/>
<text x="39" y="257.75" fill="#1a1d22">tool_results: Option&lt;List&lt;ToolResult&gt;&gt;</text>
<line x1="29" y1="263.8" x2="350" y2="263.8" stroke="#dadde2" stroke-width="1"/>
<text x="39" y="278.95000000000005" fill="#1a1d22">session_id: String</text>
</g>
<g data-decl="ToolResult" data-kind="record">
  <rect x="412" y="123" width="227" height="120" rx="6" ry="6" fill="#ffffff" stroke="#3b3f46" stroke-width="1"/>
  <rect x="412" y="123" width="227" height="34.2" rx="6" ry="6" fill="#eef1f5" stroke="none"/>
  <rect x="412" y="151.2" width="227" height="6" fill="#eef1f5" stroke="none"/>
  <line x1="412" y1="157.2" x2="639" y2="157.2" stroke="#3b3f46" stroke-width="1"/>
  <rect x="412" y="123" width="4" height="120" rx="2" ry="2" fill="#1f6feb"/>
  <text x="422" y="144.65" fill="#1a1d22" font-weight="600">ToolResult</text>
  <line x1="412" y1="157.2" x2="639" y2="157.2" stroke="#dadde2" stroke-width="1"/>
<text x="422" y="172.35" fill="#1a1d22">tool_call_id: String</text>
<line x1="412" y1="178.4" x2="639" y2="178.4" stroke="#dadde2" stroke-width="1"/>
<text x="422" y="193.55" fill="#1a1d22">name: String</text>
<line x1="412" y1="199.60000000000002" x2="639" y2="199.60000000000002" stroke="#dadde2" stroke-width="1"/>
<text x="422" y="214.75000000000003" fill="#1a1d22">content: ToolResultContent</text>
<line x1="412" y1="220.8" x2="639" y2="220.8" stroke="#dadde2" stroke-width="1"/>
<text x="422" y="235.95000000000002" fill="#1a1d22">ok: Bool</text>
</g>
<g data-decl="ToolResultContent" data-kind="union">
  <rect x="701" y="147" width="313" height="120" rx="6" ry="6" fill="#ffffff" stroke="#3b3f46" stroke-width="1"/>
  <rect x="701" y="147" width="313" height="34.2" rx="6" ry="6" fill="#eef1f5" stroke="none"/>
  <rect x="701" y="175.2" width="313" height="6" fill="#eef1f5" stroke="none"/>
  <line x1="701" y1="181.2" x2="1014" y2="181.2" stroke="#3b3f46" stroke-width="1"/>
  <rect x="701" y="147" width="4" height="120" rx="2" ry="2" fill="#7a4cc7"/>
  <text x="711" y="168.65" fill="#1a1d22" font-weight="600">union ToolResultContent</text>
  <line x1="701" y1="181.2" x2="1014" y2="181.2" stroke="#dadde2" stroke-width="1"/>
<text x="711" y="196.35" fill="#1a1d22">None</text>
<line x1="701" y1="202.4" x2="1014" y2="202.4" stroke="#dadde2" stroke-width="1"/>
<text x="711" y="217.55" fill="#1a1d22">Scalar { value: String }</text>
<line x1="701" y1="223.60000000000002" x2="1014" y2="223.60000000000002" stroke="#dadde2" stroke-width="1"/>
<text x="711" y="238.75000000000003" fill="#1a1d22">Dict { entries: Map&lt;String, String&gt; }</text>
<line x1="701" y1="244.8" x2="1014" y2="244.8" stroke="#dadde2" stroke-width="1"/>
<text x="711" y="259.95" fill="#1a1d22">List { items: List&lt;ContentItem&gt; }</text>
</g>
<g data-decl="ContentItem" data-kind="union">
  <rect x="1076" y="194" width="212" height="98" rx="6" ry="6" fill="#ffffff" stroke="#3b3f46" stroke-width="1"/>
  <rect x="1076" y="194" width="212" height="34.2" rx="6" ry="6" fill="#eef1f5" stroke="none"/>
  <rect x="1076" y="222.2" width="212" height="6" fill="#eef1f5" stroke="none"/>
  <line x1="1076" y1="228.2" x2="1288" y2="228.2" stroke="#3b3f46" stroke-width="1"/>
  <rect x="1076" y="194" width="4" height="98" rx="2" ry="2" fill="#7a4cc7"/>
  <text x="1086" y="215.65" fill="#1a1d22" font-weight="600">union ContentItem</text>
  <line x1="1076" y1="228.2" x2="1288" y2="228.2" stroke="#dadde2" stroke-width="1"/>
<text x="1086" y="243.35" fill="#1a1d22">Text { value: TextPart }</text>
<line x1="1076" y1="249.4" x2="1288" y2="249.4" stroke="#dadde2" stroke-width="1"/>
<text x="1086" y="264.55" fill="#1a1d22">Uri { value: UriPart }</text>
<line x1="1076" y1="270.6" x2="1288" y2="270.6" stroke="#dadde2" stroke-width="1"/>
<text x="1086" y="285.75000000000006" fill="#1a1d22">Scalar { value: String }</text>
</g>
<g data-decl="TextPart" data-kind="record">
  <rect x="1350" y="123" width="118" height="56" rx="6" ry="6" fill="#ffffff" stroke="#3b3f46" stroke-width="1"/>
  <rect x="1350" y="123" width="118" height="34.2" rx="6" ry="6" fill="#eef1f5" stroke="none"/>
  <rect x="1350" y="151.2" width="118" height="6" fill="#eef1f5" stroke="none"/>
  <line x1="1350" y1="157.2" x2="1468" y2="157.2" stroke="#3b3f46" stroke-width="1"/>
  <rect x="1350" y="123" width="4" height="56" rx="2" ry="2" fill="#1f6feb"/>
  <text x="1360" y="144.65" fill="#1a1d22" font-weight="600">TextPart</text>
  <line x1="1350" y1="157.2" x2="1468" y2="157.2" stroke="#dadde2" stroke-width="1"/>
<text x="1360" y="172.35" fill="#1a1d22">text: String</text>
</g>
<g data-decl="UriPart" data-kind="record">
  <rect x="1350" y="219" width="227" height="98" rx="6" ry="6" fill="#ffffff" stroke="#3b3f46" stroke-width="1"/>
  <rect x="1350" y="219" width="227" height="34.2" rx="6" ry="6" fill="#eef1f5" stroke="none"/>
  <rect x="1350" y="247.2" width="227" height="6" fill="#eef1f5" stroke="none"/>
  <line x1="1350" y1="253.2" x2="1577" y2="253.2" stroke="#3b3f46" stroke-width="1"/>
  <rect x="1350" y="219" width="4" height="98" rx="2" ry="2" fill="#1f6feb"/>
  <text x="1360" y="240.65" fill="#1a1d22" font-weight="600">UriPart</text>
  <line x1="1350" y1="253.2" x2="1577" y2="253.2" stroke="#dadde2" stroke-width="1"/>
<text x="1360" y="268.35" fill="#1a1d22">url: String</text>
<line x1="1350" y1="274.4" x2="1577" y2="274.4" stroke="#dadde2" stroke-width="1"/>
<text x="1360" y="289.55" fill="#1a1d22">kind: UriKind</text>
<line x1="1350" y1="295.6" x2="1577" y2="295.6" stroke="#dadde2" stroke-width="1"/>
<text x="1360" y="310.75000000000006" fill="#1a1d22">media_type: Option&lt;String&gt;</text>
</g>
<g data-decl="UriKind" data-kind="union">
  <rect x="1639" y="212" width="126" height="162" rx="6" ry="6" fill="#ffffff" stroke="#3b3f46" stroke-width="1"/>
  <rect x="1639" y="212" width="126" height="34.2" rx="6" ry="6" fill="#eef1f5" stroke="none"/>
  <rect x="1639" y="240.2" width="126" height="6" fill="#eef1f5" stroke="none"/>
  <line x1="1639" y1="246.2" x2="1765" y2="246.2" stroke="#3b3f46" stroke-width="1"/>
  <rect x="1639" y="212" width="4" height="162" rx="2" ry="2" fill="#7a4cc7"/>
  <text x="1649" y="233.65" fill="#1a1d22" font-weight="600">union UriKind</text>
  <line x1="1639" y1="246.2" x2="1765" y2="246.2" stroke="#dadde2" stroke-width="1"/>
<text x="1649" y="261.35" fill="#1a1d22">Image</text>
<line x1="1639" y1="267.4" x2="1765" y2="267.4" stroke="#dadde2" stroke-width="1"/>
<text x="1649" y="282.55" fill="#1a1d22">Audio</text>
<line x1="1639" y1="288.6" x2="1765" y2="288.6" stroke="#dadde2" stroke-width="1"/>
<text x="1649" y="303.75000000000006" fill="#1a1d22">Video</text>
<line x1="1639" y1="309.8" x2="1765" y2="309.8" stroke="#dadde2" stroke-width="1"/>
<text x="1649" y="324.95000000000005" fill="#1a1d22">Document</text>
<line x1="1639" y1="331" x2="1765" y2="331" stroke="#dadde2" stroke-width="1"/>
<text x="1649" y="346.15000000000003" fill="#1a1d22">Web</text>
<line x1="1639" y1="352.20000000000005" x2="1765" y2="352.20000000000005" stroke="#dadde2" stroke-width="1"/>
<text x="1649" y="367.3500000000001" fill="#1a1d22">Api</text>
</g>
<g data-decl="Option" data-kind="union">
  <rect x="1639" y="63" width="157" height="77" rx="6" ry="6" fill="#ffffff" stroke="#3b3f46" stroke-width="1"/>
  <rect x="1639" y="63" width="157" height="34.2" rx="6" ry="6" fill="#eef1f5" stroke="none"/>
  <rect x="1639" y="91.2" width="157" height="6" fill="#eef1f5" stroke="none"/>
  <line x1="1639" y1="97.2" x2="1796" y2="97.2" stroke="#3b3f46" stroke-width="1"/>
  <rect x="1639" y="63" width="4" height="77" rx="2" ry="2" fill="#7a4cc7"/>
  <text x="1649" y="84.64999999999999" fill="#1a1d22" font-weight="600">union Option&lt;T&gt;</text>
  <line x1="1639" y1="97.2" x2="1796" y2="97.2" stroke="#dadde2" stroke-width="1"/>
<text x="1649" y="112.35" fill="#1a1d22">Some { value: T }</text>
<line x1="1639" y1="118.4" x2="1796" y2="118.4" stroke="#dadde2" stroke-width="1"/>
<text x="1649" y="133.55" fill="#1a1d22">None</text>
</g>
<polyline points="351,102 1638,102" fill="none" stroke="#5b6068" stroke-width="1.5" marker-end="url(#td-arrow)" />
<text x="994.5" y="98" fill="#3b3f46" font-size="11" text-anchor="middle">tool_results</text>
<polyline points="351,102 361,102 361,183 411,183" fill="none" stroke="#5b6068" stroke-width="1" marker-end="url(#td-arrow)" stroke-dasharray="3 3"/>
<text x="361" y="138.5" fill="#3b3f46" font-size="11" text-anchor="middle">tool_results</text>
<polyline points="351,262 361,262 361,102 1638,102" fill="none" stroke="#5b6068" stroke-width="1.5" marker-end="url(#td-arrow)" />
<text x="361" y="178" fill="#3b3f46" font-size="11" text-anchor="middle">tool_results</text>
<polyline points="351,262 361,262 361,183 411,183" fill="none" stroke="#5b6068" stroke-width="1" marker-end="url(#td-arrow)" stroke-dasharray="3 3"/>
<text x="361" y="218.5" fill="#3b3f46" font-size="11" text-anchor="middle">tool_results</text>
<polyline points="640,219 650,219 650,207 700,207" fill="none" stroke="#5b6068" stroke-width="1.5" marker-end="url(#td-arrow)" />
<text x="650" y="209" fill="#3b3f46" font-size="11" text-anchor="middle">content</text>
<polyline points="1015,243 1075,243" fill="none" stroke="#5b6068" stroke-width="1" marker-end="url(#td-arrow)" stroke-dasharray="3 3"/>
<text x="1045" y="239" fill="#3b3f46" font-size="11" text-anchor="middle">List.items</text>
<polyline points="1289,243 1299,243 1299,151 1349,151" fill="none" stroke="#5b6068" stroke-width="1.5" marker-end="url(#td-arrow)" />
<text x="1299" y="193" fill="#3b3f46" font-size="11" text-anchor="middle">Text.value</text>
<polyline points="1289,268 1349,268" fill="none" stroke="#5b6068" stroke-width="1.5" marker-end="url(#td-arrow)" />
<text x="1319" y="264" fill="#3b3f46" font-size="11" text-anchor="middle">Uri.value</text>
<polyline points="1578,293 1638,293" fill="none" stroke="#5b6068" stroke-width="1.5" marker-end="url(#td-arrow)" />
<text x="1608" y="289" fill="#3b3f46" font-size="11" text-anchor="middle">kind</text>
<polyline points="1578,268 1588,268 1588,102 1638,102" fill="none" stroke="#5b6068" stroke-width="1.5" marker-end="url(#td-arrow)" />
<text x="1588" y="181" fill="#3b3f46" font-size="11" text-anchor="middle">media_type</text>
</svg>